# xmcd CD database file
#
# Track frame offsets:
#	150
#	18472
#	39000
#
# Disc length: 761 seconds
#
# Revision: 1
# Processed by: cddbd v1.5.1PL2 Copyright (c) Steve Scherf et al.
# Submitted via: CDex 1.60beta1-cs1
#
DISCID=1502f703
DTITLE=遠藤久美子 - 好きなら好きっ！
DYEAR=1998
DGENRE=JPop
TTITLE0=好きなら好きっ！
TTITLE1=アダム　イヴ　不思議
TTITLE2=好きなら好きっ！ (straight run)
EXTD=YEAR: 1998
EXTT0=
EXTT1=
EXTT2=
PLAYORDER=
